<svg width="512" height="107" viewBox="0 0 512 107" fill="none" xmlns="http://www.w3.org/2000/svg">
<rect x="486.393" y="10.6698" width="25.6074" height="96.0277" fill="#B4B4B4"/>
<rect x="455.45" width="25.6074" height="96.0277" fill="#E35173"/>
<rect x="424.508" y="7.46887" width="25.6074" height="96.0277" fill="#009EBD"/>
<path d="M227.237 84.6751C228.355 84.6751 229.154 84.9568 229.632 85.5202C229.981 85.947 230.156 86.4805 230.156 87.1206C230.156 87.3511 230.135 87.5944 230.092 87.8505L229.593 90.7057C229.422 91.6702 229.004 92.4427 228.338 93.0232C227.673 93.6036 226.81 93.8938 225.752 93.8938H222.026L223.652 84.6751H227.237ZM226.431 86.6725H225.598L224.689 91.8964H225.906C226.307 91.8964 226.618 91.7897 226.84 91.5763C227.071 91.3544 227.229 90.9959 227.314 90.5008L227.685 88.401C227.72 88.2132 227.737 88.0425 227.737 87.8889C227.737 87.078 227.301 86.6725 226.431 86.6725Z" fill="#D5D5D5"/>
<path d="M233.216 94.0731C231.44 94.0731 230.553 93.4585 230.553 92.2293C230.553 92.0586 230.57 91.8751 230.604 91.6788L230.873 90.0911C231.018 89.2717 231.393 88.6443 232 88.209C232.614 87.7651 233.425 87.5432 234.432 87.5432C236.148 87.5432 237.006 88.1919 237.006 89.4893C237.006 89.6771 236.989 89.882 236.955 90.1039L236.801 91.013H232.896L232.845 91.3075C232.827 91.4099 232.819 91.5038 232.819 91.5891C232.819 92.0586 233.096 92.2933 233.651 92.2933C233.856 92.2933 234.031 92.2293 234.176 92.1013C234.321 91.9732 234.407 91.8239 234.432 91.6532L236.558 91.6788C236.276 93.275 235.162 94.0731 233.216 94.0731ZM234.752 90.2319C234.786 90.0868 234.804 89.9545 234.804 89.835C234.804 89.707 234.748 89.579 234.637 89.4509C234.526 89.3229 234.347 89.2589 234.099 89.2589C233.86 89.2589 233.638 89.34 233.434 89.5021C233.237 89.6643 233.101 89.9076 233.024 90.2319H234.752Z" fill="#D5D5D5"/>
<path d="M244.096 89.0668C244.096 89.3485 244.011 89.6088 243.84 89.8478H241.74C241.808 89.7966 241.842 89.7113 241.842 89.5918C241.842 89.4723 241.774 89.3784 241.638 89.3101C241.501 89.2333 241.326 89.1948 241.113 89.1948C240.472 89.1948 240.152 89.3912 240.152 89.7838C240.152 89.9375 240.272 90.0484 240.511 90.1167C240.75 90.185 241.04 90.2405 241.382 90.2832C241.723 90.3258 242.064 90.3899 242.406 90.4752C242.747 90.552 243.037 90.7099 243.276 90.949C243.515 91.188 243.635 91.508 243.635 91.9092C243.635 92.6177 243.349 93.1555 242.777 93.5225C242.214 93.8895 241.39 94.0731 240.306 94.0731C239.222 94.0731 238.462 93.8981 238.027 93.5481C237.686 93.275 237.515 92.8994 237.515 92.4214C237.515 92.2848 237.528 92.144 237.553 91.9989L239.691 91.9732C239.674 92.0927 239.743 92.1994 239.896 92.2933C240.058 92.3787 240.293 92.4214 240.6 92.4214C240.908 92.4214 241.13 92.3915 241.266 92.3318C241.403 92.2635 241.471 92.1397 241.471 91.9604C241.471 91.8409 241.352 91.7599 241.113 91.7172C240.874 91.666 240.579 91.6233 240.229 91.5891C239.888 91.555 239.542 91.4995 239.192 91.4227C238.851 91.3459 238.56 91.1837 238.321 90.9361C238.082 90.6886 237.963 90.3642 237.963 89.9631C237.963 89.1863 238.262 88.5888 238.859 88.1705C239.465 87.7523 240.336 87.5432 241.471 87.5432C243.221 87.5432 244.096 88.051 244.096 89.0668Z" fill="#D5D5D5"/>
<path d="M247.423 92.2549C247.619 92.2549 247.794 92.2122 247.948 92.1269L247.884 93.5737C247.482 93.9066 247.026 94.0731 246.514 94.0731C245.737 94.0731 245.233 93.8938 245.003 93.5353C244.849 93.2963 244.772 93.0445 244.772 92.7799C244.772 92.5067 244.789 92.2677 244.824 92.0629L245.592 87.7352H247.768L247.051 91.7684C247.043 91.8196 247.039 91.8666 247.039 91.9092C247.039 92.1397 247.167 92.2549 247.423 92.2549ZM245.848 85.6482C245.848 85.1019 245.967 84.705 246.206 84.4575C246.454 84.2014 246.834 84.0734 247.346 84.0734C248.063 84.0734 248.421 84.3892 248.421 85.0208C248.421 85.5586 248.298 85.9512 248.05 86.1988C247.811 86.4463 247.431 86.5701 246.911 86.5701C246.202 86.5701 245.848 86.2628 245.848 85.6482Z" fill="#D5D5D5"/>
<path d="M254.368 94.0987C254.181 95.1827 253.75 96.0406 253.075 96.6722C252.409 97.3039 251.645 97.6197 250.783 97.6197C249.921 97.6197 249.298 97.4618 248.914 97.1459C248.538 96.8301 248.351 96.4161 248.351 95.904C248.351 95.1528 248.829 94.4998 249.785 93.945C249.059 93.7146 248.696 93.164 248.696 92.2933C248.696 92.0799 248.718 91.8452 248.76 91.5891L249.016 90.0911C249.153 89.3229 249.469 88.7126 249.964 88.2602C250.459 87.7992 251.099 87.5688 251.884 87.5688C252.678 87.5688 253.22 87.7608 253.511 88.1449L253.587 87.7352H255.495L254.368 94.0987ZM250.988 91.3075C250.971 91.3843 250.963 91.491 250.963 91.6275C250.963 91.7641 251.027 91.9007 251.155 92.0373C251.283 92.1653 251.496 92.2293 251.795 92.2293C252.102 92.2293 252.367 92.1098 252.589 91.8708L252.973 89.7198C252.853 89.5064 252.627 89.3997 252.294 89.3997C251.961 89.3997 251.701 89.4851 251.513 89.6558C251.325 89.8265 251.206 90.057 251.155 90.3472L250.988 91.3075ZM251.078 95.7888C251.633 95.7888 251.995 95.2851 252.166 94.2779L252.294 93.5353C251.108 94.0901 250.514 94.6492 250.514 95.2126C250.514 95.3833 250.561 95.5199 250.655 95.6223C250.758 95.7333 250.899 95.7888 251.078 95.7888Z" fill="#D5D5D5"/>
<path d="M259.985 89.9631C259.985 89.596 259.805 89.4125 259.447 89.4125C259.097 89.4125 258.807 89.5448 258.576 89.8094L257.859 93.8938H255.683L256.771 87.7352H258.794L258.653 88.4906C259.157 87.8675 259.793 87.556 260.561 87.556C261.329 87.556 261.828 87.7438 262.059 88.1193C262.204 88.3583 262.276 88.6315 262.276 88.9388C262.276 89.2461 262.255 89.532 262.212 89.7966L261.867 91.7684C261.858 91.8196 261.854 91.8666 261.854 91.9092C261.854 92.1397 261.982 92.2549 262.238 92.2549C262.434 92.2549 262.609 92.2122 262.763 92.1269L262.699 93.5737C262.298 93.9066 261.841 94.0731 261.329 94.0731C260.168 94.0731 259.588 93.5865 259.588 92.6134C259.588 92.4427 259.605 92.2592 259.639 92.0629L259.946 90.36C259.972 90.2063 259.985 90.074 259.985 89.9631Z" fill="#D5D5D5"/>
<path d="M263.296 93.1512C263.296 92.6049 263.416 92.208 263.655 91.9604C263.902 91.7044 264.286 91.5763 264.807 91.5763C265.575 91.5763 265.96 91.9562 265.96 92.7159C265.96 95.2254 264.773 96.4801 262.4 96.4801L262.567 95.5583C263.019 95.5583 263.467 95.3449 263.911 94.9181C264.158 94.6791 264.308 94.3974 264.359 94.0731C263.651 94.0731 263.296 93.7658 263.296 93.1512Z" fill="#D5D5D5"/>
<path d="M275.321 84.5855C277.387 84.5855 278.42 85.3879 278.42 86.9926C278.42 87.2487 278.394 87.5261 278.343 87.8248L277.818 90.7697C277.647 91.7599 277.293 92.5238 276.755 93.0616C276.226 93.5908 275.483 93.9109 274.527 94.0218C274.621 94.3291 274.847 94.5724 275.206 94.7517C275.573 94.9394 276.047 95.0333 276.627 95.0333L276.563 96.8515C275.914 96.8515 275.342 96.7789 274.847 96.6338C274.361 96.4887 273.981 96.3094 273.708 96.096C273.443 95.8912 273.225 95.6479 273.055 95.3662C272.799 94.9309 272.662 94.4742 272.645 93.9962C271.237 93.7828 270.532 93.0103 270.532 91.6788C270.532 91.3971 270.562 91.0941 270.622 90.7697L271.147 87.8248C271.531 85.6653 272.922 84.5855 275.321 84.5855ZM273.989 92.0885C274.416 92.0885 274.758 91.9818 275.014 91.7684C275.27 91.555 275.449 91.1623 275.551 90.5904L276.012 88.0041C276.038 87.8419 276.051 87.6968 276.051 87.5688C276.051 86.903 275.692 86.5701 274.975 86.5701C274.096 86.5872 273.575 87.0652 273.413 88.0041L272.965 90.5904C272.931 90.7953 272.914 91.0087 272.914 91.2306C272.914 91.8025 273.272 92.0885 273.989 92.0885Z" fill="#D5D5D5"/>
<path d="M285.077 91.922C285.077 92.144 285.188 92.2549 285.41 92.2549C285.641 92.2549 285.833 92.2122 285.986 92.1269L285.922 93.5737C285.513 93.9066 285.052 94.0731 284.54 94.0731C283.575 94.0731 283.05 93.7017 282.965 92.9591C282.453 93.7017 281.761 94.0731 280.891 94.0731C280.028 94.0731 279.469 93.8767 279.213 93.4841C279.043 93.2365 278.957 92.9549 278.957 92.639C278.957 92.3232 278.983 92.033 279.034 91.7684L279.751 87.7352H281.928L281.326 91.141C281.3 91.2947 281.287 91.4483 281.287 91.6019C281.287 92.0117 281.518 92.2165 281.979 92.2165C282.363 92.2165 282.67 92.0842 282.901 91.8196L283.631 87.7352H285.807L285.09 91.7684C285.082 91.8196 285.077 91.8708 285.077 91.922Z" fill="#D5D5D5"/>
<path d="M292.788 91.922C292.788 92.144 292.899 92.2549 293.121 92.2549C293.352 92.2549 293.544 92.2122 293.697 92.1269L293.633 93.5737C293.223 93.9066 292.763 94.0731 292.25 94.0731C291.311 94.0731 290.791 93.7316 290.688 93.0488C290.262 93.7316 289.634 94.0731 288.806 94.0731C287.406 94.0731 286.706 93.4713 286.706 92.2677C286.706 92.0629 286.728 91.8367 286.77 91.5891L287.039 90.0911C287.176 89.3229 287.487 88.7126 287.974 88.2602C288.469 87.7992 289.109 87.5688 289.895 87.5688C290.688 87.5688 291.226 87.7523 291.508 88.1193L291.572 87.7352H293.518L292.801 91.7684C292.792 91.8196 292.788 91.8708 292.788 91.922ZM288.998 91.3075C288.981 91.3843 288.973 91.491 288.973 91.6275C288.973 91.7641 289.037 91.9007 289.165 92.0373C289.293 92.1653 289.506 92.2293 289.805 92.2293C290.112 92.2293 290.377 92.1098 290.599 91.8708L290.983 89.7198C290.889 89.5064 290.667 89.3997 290.317 89.3997C289.66 89.3997 289.276 89.7155 289.165 90.3472L288.998 91.3075Z" fill="#D5D5D5"/>
<path d="M296.867 91.922C296.867 92.144 296.978 92.2549 297.2 92.2549C297.43 92.2549 297.622 92.2122 297.776 92.1269L297.712 93.5737C297.302 93.9066 296.841 94.0731 296.329 94.0731C295.552 94.0731 295.049 93.8938 294.818 93.5353C294.673 93.3048 294.601 93.053 294.601 92.7799C294.601 92.5067 294.618 92.2677 294.652 92.0629L296.048 84.1758H298.224L296.88 91.7684C296.871 91.8196 296.867 91.8708 296.867 91.922Z" fill="#D5D5D5"/>
<path d="M301.276 92.2549C301.472 92.2549 301.647 92.2122 301.801 92.1269L301.737 93.5737C301.335 93.9066 300.879 94.0731 300.367 94.0731C299.59 94.0731 299.086 93.8938 298.856 93.5353C298.702 93.2963 298.625 93.0445 298.625 92.7799C298.625 92.5067 298.642 92.2677 298.677 92.0629L299.445 87.7352H301.621L300.904 91.7684C300.896 91.8196 300.892 91.8666 300.892 91.9092C300.892 92.1397 301.02 92.2549 301.276 92.2549ZM299.701 85.6482C299.701 85.1019 299.82 84.705 300.059 84.4575C300.307 84.2014 300.687 84.0734 301.199 84.0734C301.916 84.0734 302.274 84.3892 302.274 85.0208C302.274 85.5586 302.151 85.9512 301.903 86.1988C301.664 86.4463 301.284 86.5701 300.764 86.5701C300.055 86.5701 299.701 86.2628 299.701 85.6482Z" fill="#D5D5D5"/>
<path d="M305.328 94.0731C304.338 94.0731 303.625 93.8511 303.19 93.4073C302.865 93.0829 302.703 92.6476 302.703 92.1013C302.703 91.922 302.72 91.73 302.754 91.5251L303.625 86.5701L305.968 85.597L305.597 87.7352H309.13L308.81 89.5405H305.277L305.02 90.9874C304.986 91.1495 304.969 91.2947 304.969 91.4227C304.969 91.9604 305.225 92.2293 305.738 92.2293C306.011 92.2293 306.237 92.1141 306.416 91.8836C306.604 91.6532 306.732 91.3459 306.8 90.9618H308.926C308.567 93.036 307.368 94.0731 305.328 94.0731Z" fill="#D5D5D5"/>
<path d="M312.06 91.141C312.035 91.2947 312.022 91.4483 312.022 91.6019C312.022 92.0117 312.252 92.2165 312.713 92.2165C313.089 92.2165 313.4 92.0842 313.648 91.8196L314.365 87.7352H316.542L315.415 94.0987C315.227 95.1827 314.796 96.0406 314.122 96.6722C313.456 97.3039 312.692 97.6197 311.83 97.6197C310.968 97.6197 310.345 97.4618 309.961 97.1459C309.585 96.8301 309.397 96.4161 309.397 95.904C309.397 95.1784 309.845 94.534 310.742 93.9706C310.255 93.8511 309.948 93.6079 309.82 93.2408C309.743 93.036 309.704 92.8055 309.704 92.5494C309.704 92.2933 309.726 92.033 309.768 91.7684L310.485 87.7352H312.662L312.06 91.141ZM312.124 95.7888C312.679 95.7888 313.042 95.2851 313.213 94.2779L313.341 93.5353C312.154 94.0901 311.561 94.6492 311.561 95.2126C311.561 95.3833 311.608 95.5199 311.702 95.6223C311.804 95.7333 311.945 95.7888 312.124 95.7888Z" fill="#D5D5D5"/>
<path d="M316.699 93.1512C316.699 92.6049 316.819 92.208 317.058 91.9604C317.305 91.7044 317.689 91.5763 318.21 91.5763C318.978 91.5763 319.362 91.9562 319.362 92.7159C319.362 95.2254 318.176 96.4801 315.803 96.4801L315.969 95.5583C316.422 95.5583 316.87 95.3449 317.314 94.9181C317.561 94.6791 317.711 94.3974 317.762 94.0731C317.054 94.0731 316.699 93.7658 316.699 93.1512Z" fill="#D5D5D5"/>
<path d="M329.774 91.922C329.774 92.144 329.885 92.2549 330.107 92.2549C330.337 92.2549 330.529 92.2122 330.683 92.1269L330.619 93.5737C330.209 93.9066 329.748 94.0731 329.236 94.0731C328.297 94.0731 327.776 93.7316 327.674 93.0488C327.247 93.7316 326.62 94.0731 325.792 94.0731C324.392 94.0731 323.692 93.4713 323.692 92.2677C323.692 92.0629 323.713 91.8367 323.756 91.5891L324.025 90.0911C324.162 89.3229 324.473 88.7126 324.96 88.2602C325.455 87.7992 326.095 87.5688 326.88 87.5688C327.674 87.5688 328.212 87.7523 328.493 88.1193L328.557 87.7352H330.504L329.787 91.7684C329.778 91.8196 329.774 91.8708 329.774 91.922ZM325.984 91.3075C325.967 91.3843 325.958 91.491 325.958 91.6275C325.958 91.7641 326.022 91.9007 326.15 92.0373C326.278 92.1653 326.492 92.2293 326.791 92.2293C327.098 92.2293 327.362 92.1098 327.584 91.8708L327.969 89.7198C327.875 89.5064 327.653 89.3997 327.303 89.3997C326.645 89.3997 326.261 89.7155 326.15 90.3472L325.984 91.3075Z" fill="#D5D5D5"/>
<path d="M335.594 89.9631C335.594 89.596 335.415 89.4125 335.056 89.4125C334.706 89.4125 334.416 89.5448 334.186 89.8094L333.469 93.8938H331.292L332.38 87.7352H334.403L334.262 88.4906C334.766 87.8675 335.402 87.556 336.17 87.556C336.938 87.556 337.438 87.7438 337.668 88.1193C337.813 88.3583 337.886 88.6315 337.886 88.9388C337.886 89.2461 337.864 89.532 337.822 89.7966L337.476 91.7684C337.468 91.8196 337.463 91.8666 337.463 91.9092C337.463 92.1397 337.591 92.2549 337.847 92.2549C338.044 92.2549 338.219 92.2122 338.372 92.1269L338.308 93.5737C337.907 93.9066 337.45 94.0731 336.938 94.0731C335.777 94.0731 335.197 93.5865 335.197 92.6134C335.197 92.4427 335.214 92.2592 335.248 92.0629L335.556 90.36C335.581 90.2063 335.594 90.074 335.594 89.9631Z" fill="#D5D5D5"/>
<path d="M345.128 91.922C345.128 92.144 345.239 92.2549 345.461 92.2549C345.692 92.2549 345.884 92.2122 346.037 92.1269L345.973 93.5737C345.564 93.9066 345.103 94.0731 344.591 94.0731C343.652 94.0731 343.131 93.7316 343.028 93.0488C342.602 93.7316 341.974 94.0731 341.146 94.0731C339.746 94.0731 339.047 93.4713 339.047 92.2677C339.047 92.0629 339.068 91.8367 339.111 91.5891L339.379 90.0911C339.516 89.3229 339.828 88.7126 340.314 88.2602C340.809 87.7992 341.492 87.5688 342.363 87.5688C342.9 87.5688 343.327 87.684 343.643 87.9145L344.296 84.1758H346.485L345.141 91.7684C345.133 91.8196 345.128 91.8708 345.128 91.922ZM341.338 91.3075C341.321 91.3843 341.313 91.491 341.313 91.6275C341.313 91.7641 341.377 91.9007 341.505 92.0373C341.633 92.1653 341.846 92.2293 342.145 92.2293C342.452 92.2293 342.717 92.1098 342.939 91.8708L343.323 89.7198C343.229 89.5064 343.007 89.3997 342.657 89.3997C342 89.3997 341.616 89.7155 341.505 90.3472L341.338 91.3075Z" fill="#D5D5D5"/>
<path d="M355.094 84.5855C357.151 84.5855 358.179 85.4263 358.179 87.1078C358.179 87.3895 358.15 87.6925 358.09 88.0169L357.642 90.5776C357.437 91.7641 356.993 92.6433 356.31 93.2152C355.627 93.7871 354.667 94.0731 353.429 94.0731C352.192 94.0731 351.329 93.7871 350.843 93.2152C350.51 92.8226 350.344 92.2805 350.344 91.5891C350.344 91.2818 350.378 90.9447 350.446 90.5776L350.894 88.0169C351.295 85.7293 352.695 84.5855 355.094 84.5855ZM353.775 92.0885C354.202 92.0885 354.543 91.9775 354.799 91.7556C355.055 91.5337 355.235 91.1239 355.337 90.5264L355.772 88.0681C355.798 87.8974 355.811 87.7438 355.811 87.6072C355.811 86.9158 355.461 86.5701 354.761 86.5701C353.882 86.5872 353.357 87.0865 353.186 88.0681L352.751 90.5264C352.717 90.7398 352.699 90.9618 352.699 91.1922C352.699 91.7897 353.058 92.0885 353.775 92.0885Z" fill="#D5D5D5"/>
<path d="M363.097 87.5688C363.968 87.5688 364.569 87.7992 364.902 88.2602C365.141 88.576 365.261 88.9772 365.261 89.4637C365.261 89.66 365.239 89.8692 365.197 90.0911L364.941 91.5891C364.796 92.4 364.484 93.0189 364.006 93.4457C363.528 93.8639 362.93 94.0731 362.213 94.0731C361.496 94.0731 360.997 93.881 360.715 93.4969L360.024 97.4532H357.847L359.563 87.7352H361.535L361.471 88.0809C361.872 87.7395 362.414 87.5688 363.097 87.5688ZM361.765 92.2293C362.004 92.2293 362.226 92.1525 362.431 91.9989C362.636 91.8452 362.764 91.6147 362.815 91.3075L362.982 90.3472C362.999 90.2618 363.007 90.1551 363.007 90.0271C363.007 89.899 362.952 89.7625 362.841 89.6174C362.73 89.4723 362.538 89.3997 362.265 89.3997C361.821 89.3997 361.531 89.5064 361.394 89.7198L361.01 91.8708C361.129 92.1098 361.381 92.2293 361.765 92.2293Z" fill="#D5D5D5"/>
<path d="M368.617 94.0731C366.842 94.0731 365.954 93.4585 365.954 92.2293C365.954 92.0586 365.971 91.8751 366.006 91.6788L366.274 90.0911C366.42 89.2717 366.795 88.6443 367.401 88.209C368.016 87.7651 368.827 87.5432 369.834 87.5432C371.55 87.5432 372.407 88.1919 372.407 89.4893C372.407 89.6771 372.39 89.882 372.356 90.1039L372.203 91.013H368.297L368.246 91.3075C368.229 91.4099 368.221 91.5038 368.221 91.5891C368.221 92.0586 368.498 92.2933 369.053 92.2933C369.258 92.2933 369.433 92.2293 369.578 92.1013C369.723 91.9732 369.808 91.8239 369.834 91.6532L371.959 91.6788C371.678 93.275 370.564 94.0731 368.617 94.0731ZM370.154 90.2319C370.188 90.0868 370.205 89.9545 370.205 89.835C370.205 89.707 370.15 89.579 370.039 89.4509C369.928 89.3229 369.748 89.2589 369.501 89.2589C369.262 89.2589 369.04 89.34 368.835 89.5021C368.639 89.6643 368.502 89.9076 368.425 90.2319H370.154Z" fill="#D5D5D5"/>
<path d="M379.305 89.0412C379.305 89.3314 379.254 89.6131 379.152 89.8862C379.058 90.1594 378.964 90.36 378.87 90.488L378.729 90.6673H376.796C377.009 90.4709 377.116 90.2277 377.116 89.9375C377.116 89.7838 377.065 89.66 376.962 89.5662C376.868 89.4637 376.736 89.4125 376.565 89.4125C376.275 89.4125 376.023 89.5576 375.81 89.8478L375.093 93.8938H372.916L374.005 87.7352H376.028L375.874 88.5931C376.361 87.9017 376.95 87.556 377.641 87.556C378.196 87.556 378.61 87.6883 378.883 87.9529C379.165 88.2175 379.305 88.5803 379.305 89.0412Z" fill="#D5D5D5"/>
<path d="M385.677 91.922C385.677 92.144 385.788 92.2549 386.01 92.2549C386.241 92.2549 386.433 92.2122 386.587 92.1269L386.523 93.5737C386.113 93.9066 385.652 94.0731 385.14 94.0731C384.201 94.0731 383.68 93.7316 383.578 93.0488C383.151 93.7316 382.524 94.0731 381.696 94.0731C380.296 94.0731 379.596 93.4713 379.596 92.2677C379.596 92.0629 379.617 91.8367 379.66 91.5891L379.929 90.0911C380.065 89.3229 380.377 88.7126 380.863 88.2602C381.358 87.7992 381.999 87.5688 382.784 87.5688C383.578 87.5688 384.115 87.7523 384.397 88.1193L384.461 87.7352H386.407L385.69 91.7684C385.682 91.8196 385.677 91.8708 385.677 91.922ZM381.888 91.3075C381.871 91.3843 381.862 91.491 381.862 91.6275C381.862 91.7641 381.926 91.9007 382.054 92.0373C382.182 92.1653 382.395 92.2293 382.694 92.2293C383.002 92.2293 383.266 92.1098 383.488 91.8708L383.872 89.7198C383.778 89.5064 383.556 89.3997 383.206 89.3997C382.549 89.3997 382.165 89.7155 382.054 90.3472L381.888 91.3075Z" fill="#D5D5D5"/>
<path d="M390.115 94.0731C389.125 94.0731 388.412 93.8511 387.977 93.4073C387.652 93.0829 387.49 92.6476 387.49 92.1013C387.49 91.922 387.507 91.73 387.541 91.5251L388.412 86.5701L390.755 85.597L390.384 87.7352H393.917L393.597 89.5405H390.064L389.807 90.9874C389.773 91.1495 389.756 91.2947 389.756 91.4227C389.756 91.9604 390.012 92.2293 390.525 92.2293C390.798 92.2293 391.024 92.1141 391.203 91.8836C391.391 91.6532 391.519 91.3459 391.587 90.9618H393.713C393.354 93.036 392.155 94.0731 390.115 94.0731Z" fill="#D5D5D5"/>
<path d="M397.103 92.2549C397.3 92.2549 397.475 92.2122 397.628 92.1269L397.564 93.5737C397.163 93.9066 396.706 94.0731 396.194 94.0731C395.418 94.0731 394.914 93.8938 394.684 93.5353C394.53 93.2963 394.453 93.0445 394.453 92.7799C394.453 92.5067 394.47 92.2677 394.504 92.0629L395.272 87.7352H397.449L396.732 91.7684C396.724 91.8196 396.719 91.8666 396.719 91.9092C396.719 92.1397 396.847 92.2549 397.103 92.2549ZM395.529 85.6482C395.529 85.1019 395.648 84.705 395.887 84.4575C396.135 84.2014 396.514 84.0734 397.027 84.0734C397.744 84.0734 398.102 84.3892 398.102 85.0208C398.102 85.5586 397.978 85.9512 397.731 86.1988C397.492 86.4463 397.112 86.5701 396.591 86.5701C395.883 86.5701 395.529 86.2628 395.529 85.6482Z" fill="#D5D5D5"/>
<path d="M402.244 87.556C403.166 87.556 403.861 87.7566 404.331 88.1577C404.698 88.4736 404.881 88.9132 404.881 89.4765C404.881 89.6643 404.86 89.8692 404.817 90.0911L404.548 91.5891C404.386 92.4939 404.006 93.1341 403.409 93.5097C402.82 93.8853 402.03 94.0731 401.04 94.0731C400.05 94.0731 399.325 93.8853 398.864 93.5097C398.522 93.228 398.351 92.8055 398.351 92.2421C398.351 92.0458 398.373 91.8281 398.415 91.5891L398.684 90.0911C398.983 88.401 400.17 87.556 402.244 87.556ZM402.589 90.3472C402.607 90.2618 402.615 90.1551 402.615 90.0271C402.615 89.8905 402.56 89.7411 402.449 89.579C402.338 89.4168 402.141 89.3357 401.86 89.3357C401.587 89.3357 401.356 89.4296 401.168 89.6174C400.98 89.7966 400.861 90.0399 400.81 90.3472L400.643 91.3075C400.626 91.3928 400.618 91.5038 400.618 91.6404C400.618 91.7684 400.673 91.9092 400.784 92.0629C400.895 92.2165 401.087 92.2933 401.36 92.2933C401.642 92.2933 401.877 92.1994 402.065 92.0117C402.252 91.8153 402.372 91.5806 402.423 91.3075L402.589 90.3472Z" fill="#D5D5D5"/>
<path d="M409.765 89.9631C409.765 89.596 409.586 89.4125 409.228 89.4125C408.878 89.4125 408.587 89.5448 408.357 89.8094L407.64 93.8938H405.463L406.552 87.7352H408.575L408.434 88.4906C408.937 87.8675 409.573 87.556 410.342 87.556C411.11 87.556 411.609 87.7438 411.84 88.1193C411.985 88.3583 412.057 88.6315 412.057 88.9388C412.057 89.2461 412.036 89.532 411.993 89.7966L411.647 91.7684C411.639 91.8196 411.635 91.8666 411.635 91.9092C411.635 92.1397 411.763 92.2549 412.019 92.2549C412.215 92.2549 412.39 92.2122 412.544 92.1269L412.48 93.5737C412.079 93.9066 411.622 94.0731 411.11 94.0731C409.949 94.0731 409.368 93.5865 409.368 92.6134C409.368 92.4427 409.386 92.2592 409.42 92.0629L409.727 90.36C409.753 90.2063 409.765 90.074 409.765 89.9631Z" fill="#D5D5D5"/>
<path d="M37.3545 43.2167C36.9586 43.9252 36.7606 45.6236 36.7606 48.3119V58.0022C36.7606 60.9405 35.2393 63.4934 32.1968 65.6606C29.0501 67.9321 25.1948 69.0679 20.631 69.0679C14.2958 69.0679 9.24225 67.0777 5.47033 63.0974C1.82344 59.3046 0 54.4699 0 48.5932C0 42.3414 1.8547 37.1316 5.56411 32.9637C9.71114 28.2748 15.4211 25.9304 22.6941 25.9304C27.5496 25.9304 31.3945 26.8682 34.2286 28.7437L33.7285 37.9651L33.4784 38.0277C32.749 36.7565 31.3111 35.7145 29.1647 34.9018C27.1224 34.1307 24.976 33.7452 22.7253 33.7452C20.4955 33.7452 18.5366 34.0994 16.8486 34.808C15.1815 35.5165 13.7644 36.5272 12.5974 37.8401C10.1383 40.5284 8.90882 44.0815 8.90882 48.4994C8.90882 52.3547 9.99247 55.4494 12.1598 57.7834C14.3271 60.0965 17.1195 61.2531 20.5372 61.2531C24.3091 61.2531 26.8515 60.2737 28.1644 58.3148C28.5812 57.6896 28.7896 56.9811 28.7896 56.1892V51.0002H24.7572C22.5899 51.0002 21.4124 51.1877 21.2249 51.5628L21.1311 51.5316L20.8498 43.373C21.4333 43.5397 23.7985 43.623 27.9456 43.623H31.6341C33.9265 43.623 35.802 43.4667 37.2608 43.1541L37.3545 43.2167Z" fill="#D5D5D5"/>
<path d="M75.428 68.474C74.4277 68.3489 72.5001 68.2864 69.6451 68.2864H67.1444V26.5869C68.4781 26.6702 69.9473 26.7119 71.5519 26.7119C73.1565 26.7119 74.2923 26.6285 74.9592 26.4618L85.4622 44.3107L95.5589 26.4618C96.2257 26.6285 97.4969 26.7119 99.3725 26.7119C101.248 26.7119 102.853 26.6702 104.186 26.5869V68.2864H101.686C98.8306 68.2864 96.903 68.3489 95.9027 68.474V40.4659L85.681 58.7524L75.428 41.935V68.474Z" fill="#D5D5D5"/>
<path d="M151.387 68.474C150.387 68.3489 147.814 68.2864 143.667 68.2864H142.666V33.7139H136.477C134.643 33.7139 133.559 33.8077 133.226 33.9952C132.893 34.1828 132.632 34.3495 132.445 34.4954L132.351 34.4641V26.4618L132.445 26.368C133.132 26.5973 134.987 26.7119 138.009 26.7119H157.608C159.442 26.7119 160.526 26.6181 160.859 26.4306C161.192 26.243 161.453 26.0763 161.64 25.9304L161.734 25.9617V33.964L161.64 34.0578C160.953 33.8285 159.098 33.7139 156.076 33.7139H151.387V68.474Z" fill="#D5D5D5"/>
<path d="M215.969 65.2543C214.447 66.463 212.468 67.4007 210.029 68.0676C207.591 68.7345 204.59 69.0679 201.027 69.0679C197.484 69.0679 193.712 68.7449 189.711 68.0989V26.8994C193.754 26.2534 197.255 25.9304 200.214 25.9304C203.194 25.9304 205.632 26.2118 207.529 26.7744C209.446 27.3371 211.009 28.0977 212.218 29.0563C214.593 30.911 215.781 33.318 215.781 36.2772C215.781 39.2155 214.708 41.6537 212.561 43.5918C215.104 44.3837 217.073 45.8841 218.469 48.0931C219.741 50.0728 220.376 52.2714 220.376 54.6887C220.376 57.0853 220.022 59.1379 219.313 60.8468C218.626 62.5556 217.511 64.0248 215.969 65.2543ZM197.995 42.4352C198.87 42.5811 199.964 42.654 201.277 42.654C202.59 42.654 203.663 42.4873 204.497 42.1539C205.351 41.7996 206.007 41.362 206.466 40.841C207.216 39.9866 207.591 38.7987 207.591 37.2774C207.591 34.089 205.716 32.4948 201.965 32.4948C200.381 32.4948 199.058 32.5573 197.995 32.6824V42.4352ZM202.621 49.1246C200.871 49.1246 199.328 49.2392 197.995 49.4685V61.7533C199.453 62.1284 200.985 62.3159 202.59 62.3159C204.194 62.3159 205.601 62.1284 206.81 61.7533C208.039 61.3573 209.071 60.8259 209.904 60.1591C211.592 58.7837 212.436 57.0332 212.436 54.9075C212.436 51.0523 209.165 49.1246 202.621 49.1246Z" fill="#D5D5D5"/>
<path d="M230.567 63.3475C228.67 61.5345 227.17 59.3567 226.065 56.8143C224.982 54.2719 224.44 51.4899 224.44 48.4682C224.44 45.4256 224.95 42.5498 225.972 39.8407C226.993 37.1316 228.451 34.7455 230.348 32.6824C232.244 30.6193 234.536 28.9834 237.225 27.7747C239.913 26.5452 242.924 25.9304 246.259 25.9304C252.01 25.9304 256.855 27.7434 260.794 31.3695C265.004 35.2456 267.108 40.4763 267.108 47.0615C267.108 53.4384 264.941 58.742 260.607 62.9724C257.939 65.5773 254.761 67.3695 251.073 68.3489C249.26 68.8282 247.134 69.0679 244.696 69.0679C242.278 69.0679 239.788 68.5677 237.225 67.5674C234.682 66.5672 232.463 65.1605 230.567 63.3475ZM233.13 48.0306C233.13 49.9686 233.453 51.7504 234.099 53.3758C234.745 55.0013 235.641 56.3976 236.787 57.5646C239.225 60.0236 242.362 61.2531 246.196 61.2531C249.843 61.2531 252.771 60.0757 254.98 57.7209C257.231 55.2826 258.356 51.9588 258.356 47.7492C258.356 43.7897 257.283 40.4867 255.136 37.8401C252.823 35.006 249.655 33.5889 245.633 33.5889C241.736 33.5889 238.642 35.0268 236.35 37.9026C234.203 40.5909 233.13 43.9669 233.13 48.0306Z" fill="#D5D5D5"/>
<path d="M288.615 52.1255C287.989 52.1672 287.323 52.188 286.614 52.188C285.906 52.188 284.853 52.1359 283.457 52.0317V68.2864H275.173V26.4931C278.091 26.118 281.675 25.9304 285.926 25.9304C291.72 25.9304 296.033 27.0036 298.868 29.1501C301.723 31.2757 303.15 34.5683 303.15 39.028C303.15 42.4873 301.848 45.4465 299.243 47.9055C298.388 48.6974 297.409 49.3851 296.304 49.9686L302.681 63.41C303.932 66.1816 304.89 67.8279 305.557 68.3489L305.401 68.5052C303.379 68.1718 300.201 68.1822 295.867 68.5365L288.615 52.1255ZM286.52 33.3076C285.457 33.3076 284.436 33.3596 283.457 33.4638V45.4048C284.478 45.5507 285.676 45.6236 287.052 45.6236C288.427 45.6236 289.584 45.509 290.521 45.2798C291.459 45.0297 292.272 44.6546 292.96 44.1544C294.439 43.0499 295.179 41.3932 295.179 39.1842C295.179 36.9753 294.408 35.4227 292.866 34.5267C291.428 33.7139 289.313 33.3076 286.52 33.3076Z" fill="#D5D5D5"/>
<path d="M346.756 43.2167C346.36 43.9252 346.162 45.6236 346.162 48.3119V58.0022C346.162 60.9405 344.641 63.4934 341.599 65.6606C338.452 67.9321 334.597 69.0679 330.033 69.0679C323.698 69.0679 318.644 67.0777 314.872 63.0974C311.225 59.3046 309.402 54.4699 309.402 48.5932C309.402 42.3414 311.257 37.1316 314.966 32.9637C319.113 28.2748 324.823 25.9304 332.096 25.9304C336.952 25.9304 340.796 26.8682 343.631 28.7437L343.13 37.9651L342.88 38.0277C342.151 36.7565 340.713 35.7145 338.567 34.9018C336.524 34.1307 334.378 33.7452 332.127 33.7452C329.897 33.7452 327.938 34.0994 326.25 34.808C324.583 35.5165 323.166 36.5272 321.999 37.8401C319.54 40.5284 318.311 44.0815 318.311 48.4994C318.311 52.3547 319.394 55.4494 321.562 57.7834C323.729 60.0965 326.521 61.2531 329.939 61.2531C333.711 61.2531 336.253 60.2737 337.566 58.3148C337.983 57.6896 338.191 56.9811 338.191 56.1892V51.0002H334.159C331.992 51.0002 330.814 51.1877 330.627 51.5628L330.533 51.5316L330.252 43.373C330.835 43.5397 333.2 43.623 337.347 43.623H341.036C343.328 43.623 345.204 43.4667 346.663 43.1541L346.756 43.2167Z" fill="#D5D5D5"/>
<path d="M376.046 60.7842C377.338 60.7842 378.234 60.6592 378.734 60.4091L378.859 60.4404L378.547 68.2864H355.134V26.4931C355.696 26.5348 356.322 26.566 357.009 26.5869L359.198 26.6494C360.656 26.6911 362.24 26.7119 363.949 26.7119C368.721 26.7119 373.441 26.6285 378.109 26.4618C377.88 28.2957 377.765 30.7443 377.765 33.8077C377.765 34.1411 377.786 34.3912 377.828 34.5579L377.765 34.6517C376.682 34.3391 375.14 34.1828 373.139 34.1828H363.292V42.1539H370.701C372.993 42.1539 374.369 42.0913 374.827 41.9663L374.921 49.6873C373.921 49.5831 372.628 49.531 371.045 49.531H363.292V60.7842H376.046Z" fill="#D5D5D5"/>
<path d="M412.307 29.0251L411.713 38.2152L411.494 38.2777C409.952 35.9646 407.326 34.4641 403.617 33.7764C402.45 33.5472 401.324 33.4326 400.241 33.4326C399.178 33.4326 398.261 33.5264 397.49 33.7139C396.74 33.9015 396.094 34.1724 395.552 34.5267C394.406 35.2769 393.833 36.2563 393.833 37.465C393.833 39.0488 394.333 40.2366 395.333 41.0285C396.583 41.9871 398.657 42.6644 401.553 43.0604C404.45 43.4355 406.774 43.9565 408.524 44.6233C410.275 45.2902 411.713 46.1342 412.838 47.1553C414.964 49.0725 416.026 51.7816 416.026 55.2826C416.026 59.8673 414.297 63.3996 410.837 65.8795C407.878 68.0051 404.148 69.0679 399.647 69.0679C396.021 69.0679 392.436 68.3802 388.894 67.0048C387.727 66.5463 386.705 66.0149 385.83 65.4106L386.174 54.9701L386.299 54.8763C388.883 59.3359 393.124 61.5657 399.022 61.5657C403.21 61.5657 405.982 60.555 407.336 58.5336C407.795 57.8459 408.024 57.0853 408.024 56.2517C408.024 55.3973 407.889 54.6991 407.618 54.1573C407.347 53.5947 406.899 53.1154 406.274 52.7194C405.065 51.9275 403.033 51.3961 400.178 51.1252C397.323 50.8543 394.989 50.3437 393.176 49.5935C391.363 48.8433 389.915 47.9159 388.831 46.8115C386.872 44.8109 385.893 42.0184 385.893 38.434C385.893 34.7246 387.195 31.7238 389.8 29.4314C392.447 27.0974 396.01 25.9304 400.491 25.9304C404.992 25.9304 408.931 26.962 412.307 29.0251Z" fill="#D5D5D5"/>
</svg>
