<svg width="513" height="107" viewBox="0 0 513 107" fill="none" xmlns="http://www.w3.org/2000/svg">
<rect x="486.531" y="10.6698" width="25.6074" height="96.0277" fill="#03256C"/>
<rect x="455.589" width="25.6074" height="96.0277" fill="#E35173"/>
<rect x="424.647" y="7.46887" width="25.6074" height="96.0277" fill="#009EBD"/>
<path d="M227.376 84.6751C228.494 84.6751 229.292 84.9568 229.77 85.5202C230.12 85.947 230.295 86.4805 230.295 87.1206C230.295 87.3511 230.274 87.5944 230.231 87.8505L229.732 90.7057C229.561 91.6702 229.143 92.4427 228.477 93.0232C227.811 93.6036 226.949 93.8938 225.891 93.8938H222.165L223.791 84.6751H227.376ZM226.569 86.6725H225.737L224.828 91.8964H226.044C226.445 91.8964 226.757 91.7897 226.979 91.5763C227.209 91.3544 227.367 90.9959 227.453 90.5008L227.824 88.401C227.858 88.2132 227.875 88.0425 227.875 87.8889C227.875 87.078 227.44 86.6725 226.569 86.6725Z" fill="#213663"/>
<path d="M233.355 94.0731C231.579 94.0731 230.691 93.4585 230.691 92.2293C230.691 92.0586 230.708 91.8751 230.743 91.6788L231.011 90.0911C231.157 89.2717 231.532 88.6443 232.138 88.209C232.753 87.7651 233.564 87.5432 234.571 87.5432C236.287 87.5432 237.144 88.1919 237.144 89.4893C237.144 89.6771 237.127 89.882 237.093 90.1039L236.94 91.013H233.034L232.983 91.3075C232.966 91.4099 232.958 91.5038 232.958 91.5891C232.958 92.0586 233.235 92.2933 233.79 92.2933C233.995 92.2933 234.17 92.2293 234.315 92.1013C234.46 91.9732 234.545 91.8239 234.571 91.6532L236.696 91.6788C236.415 93.275 235.301 94.0731 233.355 94.0731ZM234.891 90.2319C234.925 90.0868 234.942 89.9545 234.942 89.835C234.942 89.707 234.887 89.579 234.776 89.4509C234.665 89.3229 234.486 89.2589 234.238 89.2589C233.999 89.2589 233.777 89.34 233.572 89.5021C233.376 89.6643 233.239 89.9076 233.162 90.2319H234.891Z" fill="#213663"/>
<path d="M244.235 89.0668C244.235 89.3485 244.149 89.6088 243.978 89.8478H241.879C241.947 89.7966 241.981 89.7113 241.981 89.5918C241.981 89.4723 241.913 89.3784 241.776 89.3101C241.64 89.2333 241.465 89.1948 241.251 89.1948C240.611 89.1948 240.291 89.3912 240.291 89.7838C240.291 89.9375 240.411 90.0484 240.65 90.1167C240.889 90.185 241.179 90.2405 241.52 90.2832C241.862 90.3258 242.203 90.3899 242.544 90.4752C242.886 90.552 243.176 90.7099 243.415 90.949C243.654 91.188 243.774 91.508 243.774 91.9092C243.774 92.6177 243.488 93.1555 242.916 93.5225C242.352 93.8895 241.529 94.0731 240.445 94.0731C239.361 94.0731 238.601 93.8981 238.166 93.5481C237.824 93.275 237.653 92.8994 237.653 92.4214C237.653 92.2848 237.666 92.144 237.692 91.9989L239.83 91.9732C239.813 92.0927 239.881 92.1994 240.035 92.2933C240.197 92.3787 240.432 92.4214 240.739 92.4214C241.046 92.4214 241.268 92.3915 241.405 92.3318C241.542 92.2635 241.61 92.1397 241.61 91.9604C241.61 91.8409 241.49 91.7599 241.251 91.7172C241.012 91.666 240.718 91.6233 240.368 91.5891C240.026 91.555 239.681 91.4995 239.331 91.4227C238.989 91.3459 238.699 91.1837 238.46 90.9361C238.221 90.6886 238.102 90.3642 238.102 89.9631C238.102 89.1863 238.4 88.5888 238.998 88.1705C239.604 87.7523 240.475 87.5432 241.61 87.5432C243.36 87.5432 244.235 88.051 244.235 89.0668Z" fill="#213663"/>
<path d="M247.561 92.2549C247.758 92.2549 247.933 92.2122 248.086 92.1269L248.022 93.5737C247.621 93.9066 247.164 94.0731 246.652 94.0731C245.876 94.0731 245.372 93.8938 245.141 93.5353C244.988 93.2963 244.911 93.0445 244.911 92.7799C244.911 92.5067 244.928 92.2677 244.962 92.0629L245.73 87.7352H247.907L247.19 91.7684C247.181 91.8196 247.177 91.8666 247.177 91.9092C247.177 92.1397 247.305 92.2549 247.561 92.2549ZM245.986 85.6482C245.986 85.1019 246.106 84.705 246.345 84.4575C246.593 84.2014 246.972 84.0734 247.485 84.0734C248.202 84.0734 248.56 84.3892 248.56 85.0208C248.56 85.5586 248.436 85.9512 248.189 86.1988C247.95 86.4463 247.57 86.5701 247.049 86.5701C246.341 86.5701 245.986 86.2628 245.986 85.6482Z" fill="#213663"/>
<path d="M254.507 94.0987C254.319 95.1827 253.888 96.0406 253.214 96.6722C252.548 97.3039 251.784 97.6197 250.922 97.6197C250.06 97.6197 249.437 97.4618 249.053 97.1459C248.677 96.8301 248.489 96.4161 248.489 95.904C248.489 95.1528 248.967 94.4998 249.923 93.945C249.198 93.7146 248.835 93.164 248.835 92.2933C248.835 92.0799 248.856 91.8452 248.899 91.5891L249.155 90.0911C249.292 89.3229 249.607 88.7126 250.103 88.2602C250.598 87.7992 251.238 87.5688 252.023 87.5688C252.817 87.5688 253.359 87.7608 253.649 88.1449L253.726 87.7352H255.634L254.507 94.0987ZM251.127 91.3075C251.11 91.3843 251.101 91.491 251.101 91.6275C251.101 91.7641 251.165 91.9007 251.293 92.0373C251.421 92.1653 251.635 92.2293 251.933 92.2293C252.241 92.2293 252.505 92.1098 252.727 91.8708L253.111 89.7198C252.992 89.5064 252.766 89.3997 252.433 89.3997C252.1 89.3997 251.84 89.4851 251.652 89.6558C251.464 89.8265 251.345 90.057 251.293 90.3472L251.127 91.3075ZM251.216 95.7888C251.771 95.7888 252.134 95.2851 252.305 94.2779L252.433 93.5353C251.246 94.0901 250.653 94.6492 250.653 95.2126C250.653 95.3833 250.7 95.5199 250.794 95.6223C250.896 95.7333 251.037 95.7888 251.216 95.7888Z" fill="#213663"/>
<path d="M260.123 89.9631C260.123 89.596 259.944 89.4125 259.586 89.4125C259.236 89.4125 258.945 89.5448 258.715 89.8094L257.998 93.8938H255.821L256.91 87.7352H258.933L258.792 88.4906C259.295 87.8675 259.931 87.556 260.699 87.556C261.468 87.556 261.967 87.7438 262.197 88.1193C262.343 88.3583 262.415 88.6315 262.415 88.9388C262.415 89.2461 262.394 89.532 262.351 89.7966L262.005 91.7684C261.997 91.8196 261.993 91.8666 261.993 91.9092C261.993 92.1397 262.121 92.2549 262.377 92.2549C262.573 92.2549 262.748 92.2122 262.902 92.1269L262.838 93.5737C262.436 93.9066 261.98 94.0731 261.468 94.0731C260.307 94.0731 259.726 93.5865 259.726 92.6134C259.726 92.4427 259.743 92.2592 259.778 92.0629L260.085 90.36C260.11 90.2063 260.123 90.074 260.123 89.9631Z" fill="#213663"/>
<path d="M263.435 93.1512C263.435 92.6049 263.555 92.208 263.794 91.9604C264.041 91.7044 264.425 91.5763 264.946 91.5763C265.714 91.5763 266.098 91.9562 266.098 92.7159C266.098 95.2254 264.912 96.4801 262.539 96.4801L262.705 95.5583C263.158 95.5583 263.606 95.3449 264.05 94.9181C264.297 94.6791 264.447 94.3974 264.498 94.0731C263.789 94.0731 263.435 93.7658 263.435 93.1512Z" fill="#213663"/>
<path d="M275.46 84.5855C277.525 84.5855 278.558 85.3879 278.558 86.9926C278.558 87.2487 278.533 87.5261 278.481 87.8248L277.956 90.7697C277.786 91.7599 277.431 92.5238 276.894 93.0616C276.364 93.5908 275.622 93.9109 274.666 94.0218C274.76 94.3291 274.986 94.5724 275.344 94.7517C275.711 94.9394 276.185 95.0333 276.766 95.0333L276.702 96.8515C276.053 96.8515 275.481 96.7789 274.986 96.6338C274.499 96.4887 274.12 96.3094 273.846 96.096C273.582 95.8912 273.364 95.6479 273.193 95.3662C272.937 94.9309 272.801 94.4742 272.784 93.9962C271.375 93.7828 270.671 93.0103 270.671 91.6788C270.671 91.3971 270.701 91.0941 270.761 90.7697L271.286 87.8248C271.67 85.6653 273.061 84.5855 275.46 84.5855ZM274.128 92.0885C274.555 92.0885 274.896 91.9818 275.152 91.7684C275.408 91.555 275.588 91.1623 275.69 90.5904L276.151 88.0041C276.177 87.8419 276.189 87.6968 276.189 87.5688C276.189 86.903 275.831 86.5701 275.114 86.5701C274.235 86.5872 273.714 87.0652 273.552 88.0041L273.104 90.5904C273.07 90.7953 273.053 91.0087 273.053 91.2306C273.053 91.8025 273.411 92.0885 274.128 92.0885Z" fill="#213663"/>
<path d="M285.216 91.922C285.216 92.144 285.327 92.2549 285.549 92.2549C285.779 92.2549 285.971 92.2122 286.125 92.1269L286.061 93.5737C285.651 93.9066 285.19 94.0731 284.678 94.0731C283.714 94.0731 283.189 93.7017 283.103 92.9591C282.591 93.7017 281.9 94.0731 281.029 94.0731C280.167 94.0731 279.608 93.8767 279.352 93.4841C279.181 93.2365 279.096 92.9549 279.096 92.639C279.096 92.3232 279.121 92.033 279.173 91.7684L279.89 87.7352H282.066L281.465 91.141C281.439 91.2947 281.426 91.4483 281.426 91.6019C281.426 92.0117 281.657 92.2165 282.118 92.2165C282.502 92.2165 282.809 92.0842 283.039 91.8196L283.769 87.7352H285.946L285.229 91.7684C285.22 91.8196 285.216 91.8708 285.216 91.922Z" fill="#213663"/>
<path d="M292.927 91.922C292.927 92.144 293.038 92.2549 293.26 92.2549C293.49 92.2549 293.682 92.2122 293.836 92.1269L293.772 93.5737C293.362 93.9066 292.901 94.0731 292.389 94.0731C291.45 94.0731 290.929 93.7316 290.827 93.0488C290.4 93.7316 289.773 94.0731 288.945 94.0731C287.545 94.0731 286.845 93.4713 286.845 92.2677C286.845 92.0629 286.866 91.8367 286.909 91.5891L287.178 90.0911C287.315 89.3229 287.626 88.7126 288.113 88.2602C288.608 87.7992 289.248 87.5688 290.033 87.5688C290.827 87.5688 291.365 87.7523 291.646 88.1193L291.71 87.7352H293.657L292.94 91.7684C292.931 91.8196 292.927 91.8708 292.927 91.922ZM289.137 91.3075C289.12 91.3843 289.111 91.491 289.111 91.6275C289.111 91.7641 289.175 91.9007 289.303 92.0373C289.431 92.1653 289.645 92.2293 289.944 92.2293C290.251 92.2293 290.515 92.1098 290.737 91.8708L291.122 89.7198C291.028 89.5064 290.806 89.3997 290.456 89.3997C289.798 89.3997 289.414 89.7155 289.303 90.3472L289.137 91.3075Z" fill="#213663"/>
<path d="M297.006 91.922C297.006 92.144 297.117 92.2549 297.339 92.2549C297.569 92.2549 297.761 92.2122 297.915 92.1269L297.851 93.5737C297.441 93.9066 296.98 94.0731 296.468 94.0731C295.691 94.0731 295.187 93.8938 294.957 93.5353C294.812 93.3048 294.739 93.053 294.739 92.7799C294.739 92.5067 294.756 92.2677 294.791 92.0629L296.186 84.1758H298.363L297.018 91.7684C297.01 91.8196 297.006 91.8708 297.006 91.922Z" fill="#213663"/>
<path d="M301.414 92.2549C301.611 92.2549 301.786 92.2122 301.939 92.1269L301.875 93.5737C301.474 93.9066 301.017 94.0731 300.505 94.0731C299.729 94.0731 299.225 93.8938 298.994 93.5353C298.841 93.2963 298.764 93.0445 298.764 92.7799C298.764 92.5067 298.781 92.2677 298.815 92.0629L299.583 87.7352H301.76L301.043 91.7684C301.035 91.8196 301.03 91.8666 301.03 91.9092C301.03 92.1397 301.158 92.2549 301.414 92.2549ZM299.84 85.6482C299.84 85.1019 299.959 84.705 300.198 84.4575C300.446 84.2014 300.825 84.0734 301.338 84.0734C302.055 84.0734 302.413 84.3892 302.413 85.0208C302.413 85.5586 302.289 85.9512 302.042 86.1988C301.803 86.4463 301.423 86.5701 300.902 86.5701C300.194 86.5701 299.84 86.2628 299.84 85.6482Z" fill="#213663"/>
<path d="M305.466 94.0731C304.476 94.0731 303.764 93.8511 303.328 93.4073C303.004 93.0829 302.842 92.6476 302.842 92.1013C302.842 91.922 302.859 91.73 302.893 91.5251L303.764 86.5701L306.107 85.597L305.735 87.7352H309.269L308.949 89.5405H305.415L305.159 90.9874C305.125 91.1495 305.108 91.2947 305.108 91.4227C305.108 91.9604 305.364 92.2293 305.876 92.2293C306.149 92.2293 306.376 92.1141 306.555 91.8836C306.743 91.6532 306.871 91.3459 306.939 90.9618H309.064C308.706 93.036 307.507 94.0731 305.466 94.0731Z" fill="#213663"/>
<path d="M312.199 91.141C312.173 91.2947 312.161 91.4483 312.161 91.6019C312.161 92.0117 312.391 92.2165 312.852 92.2165C313.228 92.2165 313.539 92.0842 313.787 91.8196L314.504 87.7352H316.68L315.554 94.0987C315.366 95.1827 314.935 96.0406 314.26 96.6722C313.595 97.3039 312.831 97.6197 311.969 97.6197C311.106 97.6197 310.483 97.4618 310.099 97.1459C309.724 96.8301 309.536 96.4161 309.536 95.904C309.536 95.1784 309.984 94.534 310.88 93.9706C310.394 93.8511 310.086 93.6079 309.958 93.2408C309.882 93.036 309.843 92.8055 309.843 92.5494C309.843 92.2933 309.864 92.033 309.907 91.7684L310.624 87.7352H312.801L312.199 91.141ZM312.263 95.7888C312.818 95.7888 313.181 95.2851 313.351 94.2779L313.479 93.5353C312.293 94.0901 311.7 94.6492 311.7 95.2126C311.7 95.3833 311.747 95.5199 311.841 95.6223C311.943 95.7333 312.084 95.7888 312.263 95.7888Z" fill="#213663"/>
<path d="M316.838 93.1512C316.838 92.6049 316.957 92.208 317.196 91.9604C317.444 91.7044 317.828 91.5763 318.349 91.5763C319.117 91.5763 319.501 91.9562 319.501 92.7159C319.501 95.2254 318.315 96.4801 315.942 96.4801L316.108 95.5583C316.561 95.5583 317.009 95.3449 317.453 94.9181C317.7 94.6791 317.849 94.3974 317.901 94.0731C317.192 94.0731 316.838 93.7658 316.838 93.1512Z" fill="#213663"/>
<path d="M329.913 91.922C329.913 92.144 330.023 92.2549 330.245 92.2549C330.476 92.2549 330.668 92.2122 330.822 92.1269L330.758 93.5737C330.348 93.9066 329.887 94.0731 329.375 94.0731C328.436 94.0731 327.915 93.7316 327.813 93.0488C327.386 93.7316 326.759 94.0731 325.931 94.0731C324.531 94.0731 323.831 93.4713 323.831 92.2677C323.831 92.0629 323.852 91.8367 323.895 91.5891L324.164 90.0911C324.3 89.3229 324.612 88.7126 325.098 88.2602C325.593 87.7992 326.234 87.5688 327.019 87.5688C327.813 87.5688 328.35 87.7523 328.632 88.1193L328.696 87.7352H330.642L329.925 91.7684C329.917 91.8196 329.913 91.8708 329.913 91.922ZM326.123 91.3075C326.106 91.3843 326.097 91.491 326.097 91.6275C326.097 91.7641 326.161 91.9007 326.289 92.0373C326.417 92.1653 326.631 92.2293 326.929 92.2293C327.237 92.2293 327.501 92.1098 327.723 91.8708L328.107 89.7198C328.013 89.5064 327.791 89.3997 327.441 89.3997C326.784 89.3997 326.4 89.7155 326.289 90.3472L326.123 91.3075Z" fill="#213663"/>
<path d="M335.733 89.9631C335.733 89.596 335.553 89.4125 335.195 89.4125C334.845 89.4125 334.555 89.5448 334.324 89.8094L333.607 93.8938H331.431L332.519 87.7352H334.542L334.401 88.4906C334.905 87.8675 335.541 87.556 336.309 87.556C337.077 87.556 337.576 87.7438 337.807 88.1193C337.952 88.3583 338.024 88.6315 338.024 88.9388C338.024 89.2461 338.003 89.532 337.96 89.7966L337.615 91.7684C337.606 91.8196 337.602 91.8666 337.602 91.9092C337.602 92.1397 337.73 92.2549 337.986 92.2549C338.182 92.2549 338.357 92.2122 338.511 92.1269L338.447 93.5737C338.046 93.9066 337.589 94.0731 337.077 94.0731C335.916 94.0731 335.336 93.5865 335.336 92.6134C335.336 92.4427 335.353 92.2592 335.387 92.0629L335.694 90.36C335.72 90.2063 335.733 90.074 335.733 89.9631Z" fill="#213663"/>
<path d="M345.267 91.922C345.267 92.144 345.378 92.2549 345.6 92.2549C345.83 92.2549 346.022 92.2122 346.176 92.1269L346.112 93.5737C345.702 93.9066 345.241 94.0731 344.729 94.0731C343.79 94.0731 343.27 93.7316 343.167 93.0488C342.74 93.7316 342.113 94.0731 341.285 94.0731C339.885 94.0731 339.185 93.4713 339.185 92.2677C339.185 92.0629 339.207 91.8367 339.249 91.5891L339.518 90.0911C339.655 89.3229 339.966 88.7126 340.453 88.2602C340.948 87.7992 341.631 87.5688 342.501 87.5688C343.039 87.5688 343.466 87.684 343.782 87.9145L344.435 84.1758H346.624L345.28 91.7684C345.271 91.8196 345.267 91.8708 345.267 91.922ZM341.477 91.3075C341.46 91.3843 341.451 91.491 341.451 91.6275C341.451 91.7641 341.515 91.9007 341.644 92.0373C341.772 92.1653 341.985 92.2293 342.284 92.2293C342.591 92.2293 342.856 92.1098 343.078 91.8708L343.462 89.7198C343.368 89.5064 343.146 89.3997 342.796 89.3997C342.139 89.3997 341.754 89.7155 341.644 90.3472L341.477 91.3075Z" fill="#213663"/>
<path d="M355.232 84.5855C357.29 84.5855 358.318 85.4263 358.318 87.1078C358.318 87.3895 358.288 87.6925 358.229 88.0169L357.78 90.5776C357.576 91.7641 357.132 92.6433 356.449 93.2152C355.766 93.7871 354.806 94.0731 353.568 94.0731C352.33 94.0731 351.468 93.7871 350.982 93.2152C350.649 92.8226 350.482 92.2805 350.482 91.5891C350.482 91.2818 350.516 90.9447 350.585 90.5776L351.033 88.0169C351.434 85.7293 352.834 84.5855 355.232 84.5855ZM353.914 92.0885C354.34 92.0885 354.682 91.9775 354.938 91.7556C355.194 91.5337 355.373 91.1239 355.476 90.5264L355.911 88.0681C355.937 87.8974 355.949 87.7438 355.949 87.6072C355.949 86.9158 355.599 86.5701 354.9 86.5701C354.02 86.5872 353.495 87.0865 353.325 88.0681L352.889 90.5264C352.855 90.7398 352.838 90.9618 352.838 91.1922C352.838 91.7897 353.197 92.0885 353.914 92.0885Z" fill="#213663"/>
<path d="M363.236 87.5688C364.106 87.5688 364.708 87.7992 365.041 88.2602C365.28 88.576 365.399 88.9772 365.399 89.4637C365.399 89.66 365.378 89.8692 365.335 90.0911L365.079 91.5891C364.934 92.4 364.623 93.0189 364.145 93.4457C363.667 93.8639 363.069 94.0731 362.352 94.0731C361.635 94.0731 361.136 93.881 360.854 93.4969L360.163 97.4532H357.986L359.702 87.7352H361.674L361.609 88.0809C362.011 87.7395 362.553 87.5688 363.236 87.5688ZM361.904 92.2293C362.143 92.2293 362.365 92.1525 362.57 91.9989C362.775 91.8452 362.903 91.6147 362.954 91.3075L363.12 90.3472C363.137 90.2618 363.146 90.1551 363.146 90.0271C363.146 89.899 363.09 89.7625 362.979 89.6174C362.869 89.4723 362.676 89.3997 362.403 89.3997C361.959 89.3997 361.669 89.5064 361.533 89.7198L361.149 91.8708C361.268 92.1098 361.52 92.2293 361.904 92.2293Z" fill="#213663"/>
<path d="M368.756 94.0731C366.981 94.0731 366.093 93.4585 366.093 92.2293C366.093 92.0586 366.11 91.8751 366.144 91.6788L366.413 90.0911C366.558 89.2717 366.934 88.6443 367.54 88.209C368.154 87.7651 368.965 87.5432 369.972 87.5432C371.688 87.5432 372.546 88.1919 372.546 89.4893C372.546 89.6771 372.529 89.882 372.495 90.1039L372.341 91.013H368.436L368.385 91.3075C368.368 91.4099 368.359 91.5038 368.359 91.5891C368.359 92.0586 368.637 92.2933 369.191 92.2933C369.396 92.2933 369.571 92.2293 369.716 92.1013C369.862 91.9732 369.947 91.8239 369.972 91.6532L372.098 91.6788C371.816 93.275 370.702 94.0731 368.756 94.0731ZM370.293 90.2319C370.327 90.0868 370.344 89.9545 370.344 89.835C370.344 89.707 370.288 89.579 370.177 89.4509C370.066 89.3229 369.887 89.2589 369.64 89.2589C369.401 89.2589 369.179 89.34 368.974 89.5021C368.777 89.6643 368.641 89.9076 368.564 90.2319H370.293Z" fill="#213663"/>
<path d="M379.444 89.0412C379.444 89.3314 379.393 89.6131 379.29 89.8862C379.197 90.1594 379.103 90.36 379.009 90.488L378.868 90.6673H376.935C377.148 90.4709 377.255 90.2277 377.255 89.9375C377.255 89.7838 377.203 89.66 377.101 89.5662C377.007 89.4637 376.875 89.4125 376.704 89.4125C376.414 89.4125 376.162 89.5576 375.949 89.8478L375.232 93.8938H373.055L374.143 87.7352H376.166L376.013 88.5931C376.499 87.9017 377.088 87.556 377.78 87.556C378.334 87.556 378.748 87.6883 379.022 87.9529C379.303 88.2175 379.444 88.5803 379.444 89.0412Z" fill="#213663"/>
<path d="M385.816 91.922C385.816 92.144 385.927 92.2549 386.149 92.2549C386.38 92.2549 386.572 92.2122 386.725 92.1269L386.661 93.5737C386.252 93.9066 385.791 94.0731 385.278 94.0731C384.339 94.0731 383.819 93.7316 383.716 93.0488C383.29 93.7316 382.662 94.0731 381.834 94.0731C380.434 94.0731 379.734 93.4713 379.734 92.2677C379.734 92.0629 379.756 91.8367 379.798 91.5891L380.067 90.0911C380.204 89.3229 380.515 88.7126 381.002 88.2602C381.497 87.7992 382.137 87.5688 382.923 87.5688C383.716 87.5688 384.254 87.7523 384.536 88.1193L384.6 87.7352H386.546L385.829 91.7684C385.82 91.8196 385.816 91.8708 385.816 91.922ZM382.026 91.3075C382.009 91.3843 382.001 91.491 382.001 91.6275C382.001 91.7641 382.065 91.9007 382.193 92.0373C382.321 92.1653 382.534 92.2293 382.833 92.2293C383.14 92.2293 383.405 92.1098 383.627 91.8708L384.011 89.7198C383.917 89.5064 383.695 89.3997 383.345 89.3997C382.688 89.3997 382.304 89.7155 382.193 90.3472L382.026 91.3075Z" fill="#213663"/>
<path d="M390.253 94.0731C389.263 94.0731 388.551 93.8511 388.115 93.4073C387.791 93.0829 387.629 92.6476 387.629 92.1013C387.629 91.922 387.646 91.73 387.68 91.5251L388.551 86.5701L390.894 85.597L390.522 87.7352H394.056L393.736 89.5405H390.202L389.946 90.9874C389.912 91.1495 389.895 91.2947 389.895 91.4227C389.895 91.9604 390.151 92.2293 390.663 92.2293C390.936 92.2293 391.163 92.1141 391.342 91.8836C391.53 91.6532 391.658 91.3459 391.726 90.9618H393.851C393.493 93.036 392.294 94.0731 390.253 94.0731Z" fill="#213663"/>
<path d="M397.242 92.2549C397.438 92.2549 397.613 92.2122 397.767 92.1269L397.703 93.5737C397.302 93.9066 396.845 94.0731 396.333 94.0731C395.556 94.0731 395.053 93.8938 394.822 93.5353C394.669 93.2963 394.592 93.0445 394.592 92.7799C394.592 92.5067 394.609 92.2677 394.643 92.0629L395.411 87.7352H397.588L396.871 91.7684C396.862 91.8196 396.858 91.8666 396.858 91.9092C396.858 92.1397 396.986 92.2549 397.242 92.2549ZM395.667 85.6482C395.667 85.1019 395.787 84.705 396.026 84.4575C396.273 84.2014 396.653 84.0734 397.165 84.0734C397.882 84.0734 398.241 84.3892 398.241 85.0208C398.241 85.5586 398.117 85.9512 397.869 86.1988C397.63 86.4463 397.251 86.5701 396.73 86.5701C396.021 86.5701 395.667 86.2628 395.667 85.6482Z" fill="#213663"/>
<path d="M402.382 87.556C403.304 87.556 404 87.7566 404.469 88.1577C404.836 88.4736 405.02 88.9132 405.02 89.4765C405.02 89.6643 404.999 89.8692 404.956 90.0911L404.687 91.5891C404.525 92.4939 404.145 93.1341 403.548 93.5097C402.959 93.8853 402.169 94.0731 401.179 94.0731C400.189 94.0731 399.463 93.8853 399.002 93.5097C398.661 93.228 398.49 92.8055 398.49 92.2421C398.49 92.0458 398.511 91.8281 398.554 91.5891L398.823 90.0911C399.122 88.401 400.308 87.556 402.382 87.556ZM402.728 90.3472C402.745 90.2618 402.754 90.1551 402.754 90.0271C402.754 89.8905 402.698 89.7411 402.587 89.579C402.476 89.4168 402.28 89.3357 401.998 89.3357C401.725 89.3357 401.495 89.4296 401.307 89.6174C401.119 89.7966 401 90.0399 400.948 90.3472L400.782 91.3075C400.765 91.3928 400.756 91.5038 400.756 91.6404C400.756 91.7684 400.812 91.9092 400.923 92.0629C401.034 92.2165 401.226 92.2933 401.499 92.2933C401.781 92.2933 402.015 92.1994 402.203 92.0117C402.391 91.8153 402.51 91.5806 402.562 91.3075L402.728 90.3472Z" fill="#213663"/>
<path d="M409.904 89.9631C409.904 89.596 409.725 89.4125 409.366 89.4125C409.016 89.4125 408.726 89.5448 408.496 89.8094L407.779 93.8938H405.602L406.69 87.7352H408.713L408.572 88.4906C409.076 87.8675 409.712 87.556 410.48 87.556C411.248 87.556 411.748 87.7438 411.978 88.1193C412.123 88.3583 412.196 88.6315 412.196 88.9388C412.196 89.2461 412.175 89.532 412.132 89.7966L411.786 91.7684C411.778 91.8196 411.773 91.8666 411.773 91.9092C411.773 92.1397 411.901 92.2549 412.157 92.2549C412.354 92.2549 412.529 92.2122 412.682 92.1269L412.618 93.5737C412.217 93.9066 411.761 94.0731 411.248 94.0731C410.088 94.0731 409.507 93.5865 409.507 92.6134C409.507 92.4427 409.524 92.2592 409.558 92.0629L409.866 90.36C409.891 90.2063 409.904 90.074 409.904 89.9631Z" fill="#213663"/>
<path d="M37.4932 43.2167C37.0973 43.9252 36.8993 45.6236 36.8993 48.3119V58.0022C36.8993 60.9405 35.378 63.4934 32.3355 65.6606C29.1887 67.9321 25.3334 69.0679 20.7696 69.0679C14.4345 69.0679 9.38092 67.0777 5.609 63.0974C1.96212 59.3046 0.138672 54.4699 0.138672 48.5932C0.138672 42.3414 1.99337 37.1316 5.70278 32.9637C9.84981 28.2748 15.5598 25.9304 22.8327 25.9304C27.6883 25.9304 31.5332 26.8682 34.3673 28.7437L33.8672 37.9651L33.6171 38.0277C32.8877 36.7565 31.4498 35.7145 29.3033 34.9018C27.2611 34.1307 25.1146 33.7452 22.864 33.7452C20.6342 33.7452 18.6753 34.0994 16.9873 34.808C15.3201 35.5165 13.9031 36.5272 12.7361 37.8401C10.277 40.5284 9.0475 44.0815 9.0475 48.4994C9.0475 52.3547 10.1311 55.4494 12.2984 57.7834C14.4657 60.0965 17.2582 61.2531 20.6759 61.2531C24.4478 61.2531 26.9902 60.2737 28.3031 58.3148C28.7198 57.6896 28.9282 56.9811 28.9282 56.1892V51.0002H24.8958C22.7285 51.0002 21.5511 51.1877 21.3636 51.5628L21.2698 51.5316L20.9884 43.373C21.5719 43.5397 23.9372 43.623 28.0842 43.623H31.7728C34.0651 43.623 35.9407 43.4667 37.3994 43.1541L37.4932 43.2167Z" fill="#213663"/>
<path d="M75.5667 68.474C74.5664 68.3489 72.6388 68.2864 69.7838 68.2864H67.2831V26.5869C68.6168 26.6702 70.086 26.7119 71.6906 26.7119C73.2952 26.7119 74.431 26.6285 75.0978 26.4618L85.6009 44.3107L95.6975 26.4618C96.3644 26.6285 97.6356 26.7119 99.5111 26.7119C101.387 26.7119 102.991 26.6702 104.325 26.5869V68.2864H101.824C98.9693 68.2864 97.0417 68.3489 96.0414 68.474V40.4659L85.8197 58.7524L75.5667 41.935V68.474Z" fill="#213663"/>
<path d="M151.526 68.474C150.526 68.3489 147.952 68.2864 143.805 68.2864H142.805V33.7139H136.616C134.782 33.7139 133.698 33.8077 133.365 33.9952C133.031 34.1828 132.771 34.3495 132.583 34.4954L132.489 34.4641V26.4618L132.583 26.368C133.271 26.5973 135.126 26.7119 138.147 26.7119H157.747C159.581 26.7119 160.664 26.6181 160.998 26.4306C161.331 26.243 161.592 26.0763 161.779 25.9304L161.873 25.9617V33.964L161.779 34.0578C161.091 33.8285 159.237 33.7139 156.215 33.7139H151.526V68.474Z" fill="#213663"/>
<path d="M216.107 65.2543C214.586 66.463 212.606 67.4007 210.168 68.0676C207.73 68.7345 204.729 69.0679 201.165 69.0679C197.623 69.0679 193.851 68.7449 189.85 68.0989V26.8994C193.893 26.2534 197.394 25.9304 200.353 25.9304C203.333 25.9304 205.771 26.2118 207.667 26.7744C209.585 27.3371 211.148 28.0977 212.356 29.0563C214.732 30.911 215.92 33.318 215.92 36.2772C215.92 39.2155 214.847 41.6537 212.7 43.5918C215.242 44.3837 217.212 45.8841 218.608 48.0931C219.879 50.0728 220.515 52.2714 220.515 54.6887C220.515 57.0853 220.161 59.1379 219.452 60.8468C218.764 62.5556 217.649 64.0248 216.107 65.2543ZM198.133 42.4352C199.009 42.5811 200.103 42.654 201.416 42.654C202.728 42.654 203.802 42.4873 204.635 42.1539C205.49 41.7996 206.146 41.362 206.605 40.841C207.355 39.9866 207.73 38.7987 207.73 37.2774C207.73 34.089 205.854 32.4948 202.103 32.4948C200.519 32.4948 199.196 32.5573 198.133 32.6824V42.4352ZM202.76 49.1246C201.009 49.1246 199.467 49.2392 198.133 49.4685V61.7533C199.592 62.1284 201.124 62.3159 202.728 62.3159C204.333 62.3159 205.74 62.1284 206.948 61.7533C208.178 61.3573 209.209 60.8259 210.043 60.1591C211.731 58.7837 212.575 57.0332 212.575 54.9075C212.575 51.0523 209.303 49.1246 202.76 49.1246Z" fill="#213663"/>
<path d="M230.705 63.3475C228.809 61.5345 227.308 59.3567 226.204 56.8143C225.12 54.2719 224.579 51.4899 224.579 48.4682C224.579 45.4256 225.089 42.5498 226.11 39.8407C227.131 37.1316 228.59 34.7455 230.486 32.6824C232.383 30.6193 234.675 28.9834 237.363 27.7747C240.052 26.5452 243.063 25.9304 246.397 25.9304C252.149 25.9304 256.994 27.7434 260.933 31.3695C265.142 35.2456 267.247 40.4763 267.247 47.0615C267.247 53.4384 265.08 58.742 260.745 62.9724C258.078 65.5773 254.9 67.3695 251.211 68.3489C249.398 68.8282 247.273 69.0679 244.834 69.0679C242.417 69.0679 239.927 68.5677 237.363 67.5674C234.821 66.5672 232.602 65.1605 230.705 63.3475ZM233.269 48.0306C233.269 49.9686 233.592 51.7504 234.238 53.3758C234.884 55.0013 235.78 56.3976 236.926 57.5646C239.364 60.0236 242.5 61.2531 246.335 61.2531C249.982 61.2531 252.91 60.0757 255.119 57.7209C257.369 55.2826 258.495 51.9588 258.495 47.7492C258.495 43.7897 257.421 40.4867 255.275 37.8401C252.962 35.006 249.794 33.5889 245.772 33.5889C241.875 33.5889 238.781 35.0268 236.488 37.9026C234.342 40.5909 233.269 43.9669 233.269 48.0306Z" fill="#213663"/>
<path d="M288.753 52.1255C288.128 52.1672 287.461 52.188 286.753 52.188C286.044 52.188 284.992 52.1359 283.596 52.0317V68.2864H275.312V26.4931C278.229 26.118 281.814 25.9304 286.065 25.9304C291.858 25.9304 296.172 27.0036 299.006 29.1501C301.861 31.2757 303.289 34.5683 303.289 39.028C303.289 42.4873 301.986 45.4465 299.381 47.9055C298.527 48.6974 297.547 49.3851 296.443 49.9686L302.82 63.41C304.07 66.1816 305.029 67.8279 305.696 68.3489L305.539 68.5052C303.518 68.1718 300.34 68.1822 296.005 68.5365L288.753 52.1255ZM286.659 33.3076C285.596 33.3076 284.575 33.3596 283.596 33.4638V45.4048C284.617 45.5507 285.815 45.6236 287.19 45.6236C288.566 45.6236 289.722 45.509 290.66 45.2798C291.598 45.0297 292.411 44.6546 293.098 44.1544C294.578 43.0499 295.318 41.3932 295.318 39.1842C295.318 36.9753 294.547 35.4227 293.005 34.5267C291.567 33.7139 289.451 33.3076 286.659 33.3076Z" fill="#213663"/>
<path d="M346.895 43.2167C346.499 43.9252 346.301 45.6236 346.301 48.3119V58.0022C346.301 60.9405 344.78 63.4934 341.737 65.6606C338.591 67.9321 334.735 69.0679 330.172 69.0679C323.836 69.0679 318.783 67.0777 315.011 63.0974C311.364 59.3046 309.541 54.4699 309.541 48.5932C309.541 42.3414 311.395 37.1316 315.105 32.9637C319.252 28.2748 324.962 25.9304 332.235 25.9304C337.09 25.9304 340.935 26.8682 343.769 28.7437L343.269 37.9651L343.019 38.0277C342.29 36.7565 340.852 35.7145 338.705 34.9018C336.663 34.1307 334.517 33.7452 332.266 33.7452C330.036 33.7452 328.077 34.0994 326.389 34.808C324.722 35.5165 323.305 36.5272 322.138 37.8401C319.679 40.5284 318.449 44.0815 318.449 48.4994C318.449 52.3547 319.533 55.4494 321.7 57.7834C323.868 60.0965 326.66 61.2531 330.078 61.2531C333.85 61.2531 336.392 60.2737 337.705 58.3148C338.122 57.6896 338.33 56.9811 338.33 56.1892V51.0002H334.298C332.13 51.0002 330.953 51.1877 330.765 51.5628L330.672 51.5316L330.39 43.373C330.974 43.5397 333.339 43.623 337.486 43.623H341.175C343.467 43.623 345.343 43.4667 346.801 43.1541L346.895 43.2167Z" fill="#213663"/>
<path d="M376.185 60.7842C377.477 60.7842 378.373 60.6592 378.873 60.4091L378.998 60.4404L378.686 68.2864H355.273V26.4931C355.835 26.5348 356.46 26.566 357.148 26.5869L359.336 26.6494C360.795 26.6911 362.379 26.7119 364.088 26.7119C368.86 26.7119 373.58 26.6285 378.248 26.4618C378.019 28.2957 377.904 30.7443 377.904 33.8077C377.904 34.1411 377.925 34.3912 377.967 34.5579L377.904 34.6517C376.82 34.3391 375.278 34.1828 373.278 34.1828H363.431V42.1539H370.84C373.132 42.1539 374.507 42.0913 374.966 41.9663L375.059 49.6873C374.059 49.5831 372.767 49.531 371.183 49.531H363.431V60.7842H376.185Z" fill="#213663"/>
<path d="M412.445 29.0251L411.851 38.2152L411.633 38.2777C410.09 35.9646 407.465 34.4641 403.755 33.7764C402.588 33.5472 401.463 33.4326 400.379 33.4326C399.316 33.4326 398.4 33.5264 397.628 33.7139C396.878 33.9015 396.232 34.1724 395.69 34.5267C394.544 35.2769 393.971 36.2563 393.971 37.465C393.971 39.0488 394.471 40.2366 395.472 41.0285C396.722 41.9871 398.795 42.6644 401.692 43.0604C404.589 43.4355 406.912 43.9565 408.663 44.6233C410.413 45.2902 411.851 46.1342 412.977 47.1553C415.102 49.0725 416.165 51.7816 416.165 55.2826C416.165 59.8673 414.435 63.3996 410.976 65.8795C408.017 68.0051 404.287 69.0679 399.785 69.0679C396.159 69.0679 392.575 68.3802 389.032 67.0048C387.865 66.5463 386.844 66.0149 385.969 65.4106L386.313 54.9701L386.438 54.8763C389.022 59.3359 393.263 61.5657 399.16 61.5657C403.349 61.5657 406.121 60.555 407.475 58.5336C407.934 57.8459 408.163 57.0853 408.163 56.2517C408.163 55.3973 408.027 54.6991 407.756 54.1573C407.486 53.5947 407.037 53.1154 406.412 52.7194C405.204 51.9275 403.172 51.3961 400.317 51.1252C397.462 50.8543 395.128 50.3437 393.315 49.5935C391.502 48.8433 390.053 47.9159 388.97 46.8115C387.011 44.8109 386.031 42.0184 386.031 38.434C386.031 34.7246 387.334 31.7238 389.939 29.4314C392.585 27.0974 396.149 25.9304 400.629 25.9304C405.131 25.9304 409.069 26.962 412.445 29.0251Z" fill="#213663"/>
</svg>
